<?xml version="1.0" standalone="no"?>
<!DOCTYPE svg PUBLIC "-//W3C//DTD SVG 20010904//EN"
 "http://www.w3.org/TR/2001/REC-SVG-20010904/DTD/svg10.dtd">
<svg version="1.0" xmlns="http://www.w3.org/2000/svg"
 width="200.000000pt" height="200.000000pt" viewBox="0 0 200.000000 200.000000"
 preserveAspectRatio="xMidYMid meet">
<metadata>
Created by potrace 1.15, written by Peter Selinger 2001-2017
</metadata>
<g transform="translate(0.000000,200.000000) scale(0.100000,-0.100000)"
fill="#000000" stroke="none">
<path d="M838 1629 c-153 -156 -278 -292 -278 -301 0 -11 7 -18 18 -18 9 0
142 125 296 279 274 275 299 305 256 319 -9 3 -113 -96 -292 -279z"/>
<path d="M947 1612 c-183 -183 -257 -264 -257 -280 0 -14 6 -22 18 -22 22 0
542 520 542 543 0 11 -8 17 -23 17 -16 0 -95 -73 -280 -258z"/>
<path d="M551 1596 c-182 -183 -252 -259 -248 -270 4 -9 12 -16 19 -16 7 0
127 114 267 254 182 183 252 259 248 270 -4 9 -12 16 -19 16 -7 0 -127 -114
-267 -254z"/>
<path d="M676 1591 c-179 -179 -247 -254 -243 -265 4 -9 12 -16 19 -16 7 0
125 112 262 249 216 216 248 252 237 265 -8 9 -16 16 -20 16 -3 0 -118 -112
-255 -249z"/>
<path d="M1036 1571 c-226 -226 -252 -261 -199 -261 23 0 473 449 473 473 0
11 -8 17 -23 17 -16 0 -88 -66 -251 -229z"/>
<path d="M1142 1547 c-190 -190 -226 -237 -184 -237 27 0 426 404 419 424 -4
9 -12 16 -19 16 -7 0 -104 -91 -216 -203z"/>
<path d="M351 1526 c-131 -131 -182 -189 -178 -200 4 -9 12 -16 19 -16 7 0 96
83 197 184 131 131 182 189 178 200 -4 9 -12 16 -19 16 -7 0 -96 -83 -197
-184z"/>
<path d="M1249 1534 c-128 -127 -179 -185 -179 -201 0 -15 6 -23 18 -23 9 0
97 80 196 179 174 174 197 206 158 219 -8 2 -92 -74 -193 -174z"/>
<path d="M1346 1501 c-113 -113 -157 -164 -153 -175 4 -9 14 -16 24 -16 23 0
333 310 333 333 0 11 -8 17 -23 17 -16 0 -70 -47 -181 -159z"/>
<path d="M1446 1471 c-91 -91 -127 -134 -123 -145 4 -9 12 -16 19 -16 20 0
268 253 268 273 0 39 -42 10 -164 -112z"/>
<path d="M1551 1446 c-73 -73 -102 -109 -98 -120 4 -9 12 -16 19 -16 20 0 218
203 218 223 0 37 -40 13 -139 -87z"/>
<path d="M80 1170 c0 -70 3 -90 14 -90 8 0 17 -15 20 -37 4 -21 35 -179 68
-350 l61 -313 52 0 c51 0 53 1 59 32 15 77 101 168 185 196 96 33 221 2 294
-73 38 -39 77 -109 77 -139 0 -15 10 -16 82 -14 l81 3 14 42 c20 58 87 131
148 159 70 33 170 33 240 0 76 -35 130 -100 159 -189 4 -14 17 -17 65 -17 l59
0 9 42 c5 24 36 181 69 351 40 207 63 307 71 307 10 0 13 25 13 90 l0 90 -920
0 -920 0 0 -90z"/>
<path d="M570 571 c-174 -57 -236 -249 -122 -381 92 -109 247 -116 346 -16 54
53 69 98 64 186 -4 83 -38 139 -108 182 -48 30 -136 44 -180 29z m104 -115
c50 -21 76 -60 76 -117 0 -59 -33 -103 -90 -120 -32 -10 -44 -9 -76 7 -21 11
-49 35 -62 54 -42 62 -13 142 63 176 38 17 49 17 89 0z"/>
<path d="M1282 555 c-137 -43 -201 -196 -138 -332 44 -94 152 -146 256 -124
156 34 235 197 164 339 -30 61 -74 98 -140 118 -57 17 -86 17 -142 -1z m123
-109 c50 -21 77 -70 72 -126 -12 -116 -163 -152 -228 -54 -37 56 -17 137 44
174 38 24 66 25 112 6z"/>
</g>
</svg>
