<?xml version="1.0" standalone="no"?>
<!DOCTYPE svg PUBLIC "-//W3C//DTD SVG 20010904//EN"
 "http://www.w3.org/TR/2001/REC-SVG-20010904/DTD/svg10.dtd">
<svg version="1.0" xmlns="http://www.w3.org/2000/svg"
 width="328.000000pt" height="328.000000pt" viewBox="0 0 328.000000 328.000000"
 preserveAspectRatio="xMidYMid meet">
<metadata>
Created by potrace 1.15, written by Peter Selinger 2001-2017
</metadata>
<g transform="translate(0.000000,328.000000) scale(0.100000,-0.100000)"
fill="#000000" stroke="none">
<path d="M451 2631 c-36 -23 19 -51 102 -51 l27 0 0 -939 0 -939 -66 -7 c-44
-4 -67 -12 -71 -22 -10 -25 17 -33 110 -33 l87 0 0 1000 0 1000 -87 0 c-49 0
-94 -4 -102 -9z"/>
<path d="M2640 1640 l0 -1000 88 0 c92 0 119 8 109 33 -4 10 -27 18 -71 22
l-66 7 0 938 0 938 66 7 c44 4 67 12 71 22 10 25 -17 33 -109 33 l-88 0 0
-1000z"/>
<path d="M1072 1879 c-151 -75 -189 -297 -73 -422 115 -125 352 -86 422 68 28
60 25 166 -5 231 -56 121 -225 182 -344 123z m234 -65 c55 -44 78 -95 78 -174
0 -147 -103 -233 -249 -206 -45 9 -103 59 -126 111 -22 48 -25 142 -5 188 16
39 61 85 101 104 19 8 55 12 97 10 57 -2 72 -7 104 -33z"/>
<path d="M2100 1891 c-80 -26 -146 -88 -175 -165 -43 -113 17 -265 128 -323
53 -27 146 -29 202 -4 56 25 85 48 85 68 0 20 -25 16 -82 -13 -227 -115 -406
207 -202 362 49 38 127 44 187 15 54 -26 90 -28 85 -4 -8 45 -159 87 -228 64z"/>
<path d="M1656 1853 c-8 -50 -8 -357 0 -417 5 -36 11 -46 25 -46 22 0 21 -9
19 270 -1 102 -4 195 -7 208 -8 35 -30 26 -37 -15z"/>
</g>
</svg>
